<svg id="Layer_1" data-name="Layer 1" xmlns="http://www.w3.org/2000/svg" viewBox="0 0 99.15 99.47"><defs><style>.cls-1{fill:#5e92f3;stroke-width:0.47px;}.cls-1,.cls-2{stroke:#fff;stroke-miterlimit:10;}.cls-2{fill:none;stroke-width:7.1px;}.cls-3{fill:#fff;}</style></defs><title>logo</title><ellipse class="cls-1" cx="49.57" cy="49.73" rx="49.34" ry="49.5"/><path class="cls-2" d="M29,63.24l-.61.52-2.8,2.37a3.34,3.34,0,0,0,0,5.24L45.73,88.55a4.92,4.92,0,0,0,6.16,0L76.47,67.71a3.35,3.35,0,0,0,0-5.25l-.9-.74-.06-.09L60,49.64a4.94,4.94,0,0,0-6.2.26l-2.06,2a4.93,4.93,0,0,1-6.16.21l-21-16.45a3.35,3.35,0,0,1-.25-5.24L47.92,8.67a4.92,4.92,0,0,1,6.16-.21L75,24.9a3.34,3.34,0,0,1,.24,5.25l-2.66,2.46-1.19,1.1" transform="translate(-0.41 -0.29)"/><path class="cls-3" d="M76.52,38l-10.12.55a.52.52,0,0,1-.57-.46l.07-8.49a.56.56,0,0,1,.91-.33l10,7.94C77.2,37.44,77,37.94,76.52,38Z" transform="translate(-0.41 -0.29)"/><path class="cls-3" d="M24.61,58.6l10.14.26a.49.49,0,0,1,.52.5l-1,8.44a.57.57,0,0,1-.94.26l-9.13-8.7C23.88,59.06,24.14,58.59,24.61,58.6Z" transform="translate(-0.41 -0.29)"/></svg>